<?xml version="1.0" encoding="UTF-8"?>
<svg id="Layer_2" data-name="Layer 2" xmlns="http://www.w3.org/2000/svg" viewBox="0 0 212.36 199.47">
  <defs>
    <style>
      .cls-1, .cls-2 {
        fill: #e5004b;
      }

      .cls-2 {
        stroke: #e5004b;
        stroke-miterlimit: 10;
      }

      .cls-3 {
        fill: #f3d9de;
      }

      .cls-4 {
        fill: #fa5274;
      }
    </style>
  </defs>
  <g id="Layer_31" data-name="Layer 31">
    <path class="cls-3" d="M75.81,193.13C7.75,181.43-15.9,106.91,28.45,55.93,61.01,17.95,121.87,5.35,165.59,31.11c20.5,11.86,35.85,32.26,39.46,55.31,10.23,68.37-66.35,118.55-129.03,106.74l-.2-.04Z"/>
    <path class="cls-4" d="M77.81,89.08c.56-1.81,1.01-3.67,1.36-5.54.41-2.15,1.17-5.49-.19-7.47-1.11-1.62-3.6-1.69-5.32-1.24-1.9.49-3.51,1.75-4.94,3.04-5.84,5.3-10.64,12.07-14.43,18.95-3.27,5.95-5.8,12.29-7.54,18.84-1.73,6.5-2.8,13.13-.58,19.68,1.23,3.61,3.47,6.62,7.08,8.1,3.41,1.4,7.29,1.6,10.89.88.96-.19,1.92-.41,2.84-.74,1.39-.5-.43.09.31-.09.95-.23,1.88-.63,2.78-.99,9.49-3.83,17.12-11.67,21.88-20.61.92-1.72,1.73-3.49,2.46-5.29l-4.91-.26c.02,4.05,1.05,8.74,3.52,11.99,2.23,2.93,5.57,4.3,9.22,4.35,4.72.06,8.47-2.5,11.84-5.54,3.64-3.28,6.96-7.03,11.15-9.62-.15.09-.19-.02.06,0-.22-.02-.49.06-.72.06,0,0-.32.02-.34-.07.01.08.35.2.46.29.26.21.51.43.74.68.95.98,1.7,2.14,2.59,3.17,2.52,2.94,5.61,4.37,9.53,4.2,4.39-.19,8.62-1.51,12.68-3.1,9.28-3.64,17.76-8.98,26.31-14.03.85-.5.9-1.23-.02-1.7s-2.61-.51-3.54.04c-7.21,4.26-14.34,8.67-21.95,12.17-3.6,1.65-7.45,3.25-11.31,3.94-.42.07-.84.14-1.26.19-.53.07-.73.08-.94.09-.34.01-.68.03-1.02.01.38.02-.16-.02-.25-.04-.16-.02-.17-.02-.01,0-.16-.04-.31-.08-.46-.13-.92-.38-2.06-1.34-2.87-2.24-1.81-2.03-3.2-4.74-5.98-5.56-4.41-1.3-7.92,1.93-10.95,4.65-3.37,3.03-6.47,6.79-10.42,9.1-.68.4-1.4.77-2.17.96-.51.13-.95.13-1.57.06-.85-.1-1.98-.61-2.96-1.48-3.27-2.9-4.36-8.27-4.38-12.48-.01-1.63-4.4-1.52-4.91-.26-3.99,9.78-10.8,18.66-20.27,23.53-.65.34-1.31.65-1.99.95-.27.12-.55.23-.82.34-.08.03-.48.19-.15.06s-.13.05-.22.08c-.53.19-1.07.34-1.6.51-.19.06-.37.14-.55.21.79-.29.14-.06-.19.04-1.04.32-1.54.43-2.72.54-2.91.26-6.08-.8-7.93-3.3-4.1-5.51-3.73-12.99-2.38-19.36,1.14-5.39,2.89-10.66,5.11-15.7,3.11-7.05,7.2-13.67,12.16-19.58,1.84-2.19,3.78-4.39,6.02-6.2.76-.61,1.04-.79,1.78-1.18.41-.22-.28.04.03-.02.38-.07.05,0-.17.03.13-.02-.45.02-.53.01-.52-.03-.58-.07-.96-.2.23.08-.42-.1-.1-.06.09.01.19.27.07.05-.11-.2.15.29.2.4.17.34.07.12.12.39.05.26.09.52.11.78.11,1.23-.03,2.49-.2,3.7s-.44,2.5-.73,3.73c-.25,1.06-.34,1.37-.61,2.33-.04.13-.07.25-.11.38-.56,1.82,4.37,2.07,4.83.58h0Z"/>
    <g>
      <path class="cls-3" d="M52.25,22.34c2.14,7.17-4.14,7.93-11.38,14.49-5.82,5.26-12.07,10.69-13.99.36-1.37-7.35-2.08-21.16,8.47-25.54,9.83-4.08,14.76,3.53,16.9,10.69Z"/>
      <path class="cls-1" d="M49.84,23c.2.71.33,1.21.34,1.82,0,.11-.03.76.02.39-.04.32-.13.65-.25.95.14-.37-.16.26-.22.37-.23.43-.03.11-.27.39-.44.52-.95.98-1.47,1.4-2.66,2.18-5.86,4.07-8.53,6.42-2.12,1.87-4.03,3.8-6.46,5.15-.25.14-.51.28-.77.39s.01,0,.06-.02c-.14.05-.28.11-.42.14-.11.03-.81.17-.48.13.41-.05-.76-.05-.3.01.51.07-.79-.18.03.04-.18-.05-.5-.31-.15-.03-.12-.09-.5-.5-.41-.39.16.2-.08-.13-.09-.14-.12-.19-.23-.38-.33-.58-.51-1.04-.79-2.61-1-3.91-.04-.27-.08-.54-.13-.81-.06-.4,0,.13-.06-.42-.07-.64-.14-1.28-.19-1.92-.19-2.42-.19-5.35.14-7.44.86-5.45,3.4-9.99,9.04-11.56,3.06-.85,5.67-.23,7.74,1.83s3.32,4.93,4.18,7.78c.93,3.07,5.76,1.76,4.82-1.33-2.02-6.65-6.49-13.8-14.3-13.67-7.76.13-13.82,5.87-15.77,13.1-.85,3.17-1.08,6.53-.94,9.81.14,3.07.41,6.42,1.43,9.33,1.16,3.32,3.64,5.84,7.38,5.16,3.12-.57,5.82-2.98,8.13-4.99,1.74-1.51,3.4-3.08,5.26-4.44s3.69-2.53,5.44-3.93c1.46-1.17,2.71-2.57,3.39-4.33.75-1.94.54-4.07-.02-6.03-.88-3.09-5.7-1.78-4.82,1.33Z"/>
    </g>
    <path class="cls-1" d="M36.85,40.13c-1.8.1-3.6-1.12-4.62-2.7-2.91-4.7-1.49-10.85,1.63-15.04.18,2.89-.24,5.68-.2,8.53-.05,3.36.4,6.98,3.18,9.21h0Z"/>
    <g>
      <path class="cls-3" d="M155.65,16.82c-2.14,7.17,3.71,6.64,10,11.32,7.54,5.61,12.58,10.64,14.72,3.48s2.46-23.81-8.09-28.19c-9.83-4.08-14.48,6.22-16.63,13.39Z"/>
      <path class="cls-1" d="M153.24,16.15c-.51,1.78-.81,3.78-.19,5.57.58,1.66,1.74,2.87,3.17,3.85s3.02,1.65,4.53,2.46c1.98,1.06,3.76,2.36,5.55,3.72,2.87,2.19,6.12,5.29,9.84,5.82s5.94-2.62,6.82-5.94c1.57-5.97,1.58-12.8-.14-18.73C180.87,6.15,175.45-.13,167.88,0c-8.47.15-12.55,9.22-14.63,16.15-.93,3.09,3.89,4.41,4.82,1.33.82-2.7,1.66-5.02,3.09-7.43.72-1.22,1.29-2.02,2.26-2.98.55-.54.71-.68,1.27-1.04.61-.39.95-.56,1.42-.72,1.09-.36,2.18-.43,3.36-.16,1.42.33,2.67.88,3.87,1.71,1.7,1.17,3.27,3.52,4.04,5.5.99,2.57,1.46,5.16,1.62,7.67.09,1.39.1,2.78.03,4.17-.03.62-.07,1.23-.13,1.84-.03.3-.06.59-.1.89-.07.57.01,0-.08.55-.18,1.08-.38,2.14-.68,3.19-.18.62-.36,1.07-.58,1.52-.06.11-.13.22-.2.32.23-.32,0-.03-.04.03-.06.07-.3.41.04,0-.07.08-.24.15-.33.19.68-.32.09-.03.07-.07,0,0,.5-.05.19-.03-.24.01-.7-.09-.25.01-.8-.17-.78-.19-1.48-.56-1.43-.76-2.75-1.74-4.04-2.71-1.82-1.36-3.58-2.83-5.47-4.1-1.57-1.05-3.26-1.9-4.94-2.76-.7-.36-1.38-.73-2.04-1.14-.11-.07-.21-.14-.31-.21-.22-.16.17.17-.15-.12-.11-.1-.65-.69-.36-.31-.11-.15-.43-.79-.26-.36-.05-.13-.2-.9-.16-.49-.09-.9.09-1.53.34-2.42.88-3.1-3.94-4.42-4.82-1.33Z"/>
    </g>
    <path class="cls-1" d="M171.82,31.22c2.78-2.24,3.23-5.85,3.18-9.21.04-2.85-.38-5.64-.2-8.53,3.12,4.19,4.54,10.34,1.63,15.04-1.02,1.58-2.81,2.8-4.62,2.7h0Z"/>
    <path class="cls-2" d="M92.05,107.14s-3.34-4.83-.91-7.78c2.43-2.95,3.56.55,3.56.55,0,0,3.49-1.92,4.64-.77s-4.2,5.19-4.2,5.19c0,0-3.04,1.54-3.09,2.81Z"/>
    <path class="cls-1" d="M75.59,188.11c-17.83-2.87-34.75-10.64-47.52-23.59-11.57-11.74-19.06-27.01-21.44-43.31-2.47-16.92.74-34.44,8.52-49.62,9.04-17.66,23.64-32.11,40.85-41.84,17.56-9.93,37.63-14.93,57.86-14.29,20.74.66,41.53,7.6,57.61,20.91,8.59,7.12,15.88,15.96,20.85,25.97,4.72,9.49,7.2,19.82,7.56,30.4.62,18.38-5.54,36.32-16.26,51.14-5.39,7.45-11.85,14.07-19,19.84s-15.09,10.67-23.09,14.46c-8.68,4.12-16.95,6.94-26.34,8.97-2.13.46-4.13.82-6.59,1.19-2.3.35-4.62.62-6.94.83-4.49.4-8.78.5-13.46.3-4.31-.18-8.39-.68-12.62-1.36-1.39-.22-3.05.11-4.1,1.1-.85.79-.7,1.92.57,2.13,9.58,1.55,19.17,2,28.84,1.15,9.8-.86,19.51-2.97,28.82-6.13,18.63-6.32,36.07-16.72,49.76-30.93,13.02-13.51,22.56-30.52,25.36-49.22,1.48-9.88,1.21-20.24-1.11-29.97-2.64-11.09-8.02-21.48-15.18-30.32-14.03-17.33-34.8-28.33-56.59-32.18-21.35-3.77-43.58-1.12-63.75,6.69S30.48,41.21,17.77,58.48C6.92,73.21.29,91.09,0,109.46c-.26,17,4.75,33.75,14.58,47.65,10.51,14.87,26.04,25.39,43.3,30.87,4.63,1.47,9.38,2.57,14.18,3.34,1.39.22,3.05-.11,4.1-1.1.85-.79.7-1.92-.57-2.13Z"/>
    <path class="cls-4" d="M82.19,194.67c-17.83-2.87-34.75-10.64-47.52-23.59-11.57-11.74-19.06-27.01-21.44-43.31-2.47-16.92.74-34.44,8.52-49.62,9.04-17.66,23.64-32.11,40.85-41.84,17.56-9.93,37.63-14.93,57.86-14.29,20.74.66,41.53,7.6,57.61,20.91,8.59,7.12,15.88,15.96,20.85,25.97,4.72,9.49,7.2,19.82,7.56,30.4.62,18.38-5.54,36.32-16.26,51.14-5.39,7.45-11.85,14.07-19,19.84s-15.09,10.67-23.09,14.46c-8.68,4.12-16.95,6.94-26.34,8.97-2.13.46-4.13.82-6.59,1.19-2.3.35-4.62.62-6.94.83-4.49.4-8.78.5-13.46.3-4.31-.18-8.39-.68-12.62-1.36-1.39-.22-3.05.11-4.1,1.1-.85.79-.7,1.92.57,2.13,9.58,1.55,19.17,2,28.84,1.15s19.51-2.97,28.82-6.13c18.63-6.32,36.07-16.72,49.76-30.93s22.56-30.52,25.36-49.22c1.48-9.88,1.21-20.24-1.11-29.97-2.64-11.09-8.02-21.48-15.18-30.32-14.03-17.33-34.8-28.33-56.59-32.18-21.35-3.77-43.58-1.12-63.75,6.69-19.94,7.73-37.74,20.78-50.45,38.05-10.85,14.74-17.48,32.62-17.76,50.99-.26,17,4.75,33.75,14.58,47.65,10.51,14.87,26.04,25.39,43.3,30.87,4.63,1.47,9.38,2.57,14.18,3.34,1.39.22,3.05-.11,4.1-1.1.85-.79.7-1.92-.57-2.13Z"/>
  </g>
</svg>